<svg width="1000" height="1000" viewBox="0 0 1000 1000" fill="none" xmlns="http://www.w3.org/2000/svg">
<path d="M292.921 3.50005C239.721 6.01005 203.391 14.5001 171.631 26.9801C138.761 39.7901 110.901 56.9801 83.1808 84.8001C55.4608 112.62 38.3908 140.5 25.6708 173.42C13.3608 205.25 5.02081 241.61 2.67081 294.84C0.320811 348.07 -0.199189 365.18 0.0608107 500.96C0.320811 636.74 0.920811 653.76 3.50081 707.1C6.04081 760.29 14.5008 796.61 26.9808 828.38C39.8108 861.25 56.9808 889.1 84.8108 916.83C112.641 944.56 140.501 961.59 173.501 974.33C205.301 986.62 241.671 995 294.891 997.33C348.111 999.66 365.241 1000.2 500.981 999.94C636.721 999.68 653.811 999.08 707.141 996.55C760.471 994.02 796.601 985.5 828.381 973.08C861.251 960.22 889.121 943.08 916.831 915.24C944.541 887.4 961.601 859.5 974.311 826.56C986.631 794.76 995.001 758.39 997.311 705.21C999.641 651.84 1000.19 634.8 999.931 499.04C999.671 363.28 999.061 346.26 996.531 292.94C994.001 239.62 985.531 203.41 973.061 171.62C960.211 138.75 943.061 110.92 915.241 83.1701C887.421 55.4201 859.501 38.3701 826.571 25.6901C794.751 13.3801 758.401 4.99005 705.181 2.69005C651.961 0.390054 634.831 -0.199946 499.041 0.0600544C363.251 0.320054 346.251 0.900054 292.921 3.50005ZM298.761 907.38C250.011 905.26 223.541 897.16 205.901 890.38C182.541 881.38 165.901 870.5 148.321 853.09C130.741 835.68 119.941 818.98 110.821 795.67C103.971 778.03 95.7208 751.59 93.4408 702.84C90.9608 650.15 90.4408 634.33 90.1508 500.84C89.8608 367.35 90.3708 351.55 92.6808 298.84C94.7608 250.13 102.911 223.63 109.681 206C118.681 182.61 129.521 166 146.971 148.43C164.421 130.86 181.071 120.04 204.401 110.92C222.021 104.04 248.461 95.8601 297.191 93.5401C349.921 91.0401 365.721 90.5401 499.191 90.2501C632.661 89.9601 648.501 90.4601 701.251 92.7801C749.961 94.9001 776.471 102.97 794.081 109.78C817.451 118.78 834.081 129.59 851.651 147.07C869.221 164.55 880.051 181.14 889.171 204.52C896.061 222.09 904.241 248.52 906.541 297.28C909.051 350.01 909.621 365.82 909.861 499.28C910.101 632.74 909.631 648.59 907.321 701.28C905.191 750.03 897.111 776.51 890.321 794.17C881.321 817.52 870.471 834.17 853.011 851.73C835.551 869.29 818.921 880.11 795.581 889.23C777.981 896.1 751.511 904.3 702.821 906.62C650.091 909.1 634.291 909.62 500.771 909.91C367.251 910.2 351.501 909.66 298.771 907.38M706.371 232.77C706.391 244.638 709.929 256.233 716.54 266.089C723.15 275.946 732.535 283.62 743.507 288.143C754.479 292.665 766.546 293.832 778.182 291.496C789.817 289.16 800.498 283.426 808.875 275.018C817.251 266.611 822.946 255.909 825.24 244.265C827.533 232.621 826.322 220.558 821.759 209.603C817.197 198.647 809.488 189.291 799.607 182.717C789.727 176.143 778.118 172.646 766.251 172.67C750.341 172.702 735.096 179.051 723.867 190.321C712.637 201.592 706.344 216.861 706.371 232.77ZM243.271 500.5C243.551 642.3 358.711 756.99 500.481 756.72C642.251 756.45 757.021 641.3 756.751 499.5C756.481 357.7 641.291 242.98 499.501 243.26C357.711 243.54 243.001 358.72 243.271 500.5ZM333.331 500.32C333.266 467.356 342.977 435.113 361.237 407.668C379.496 380.223 405.484 358.809 435.914 346.134C466.344 333.459 499.849 330.092 532.193 336.459C564.536 342.826 594.265 358.641 617.62 381.904C640.976 405.167 656.908 434.833 663.403 467.151C669.898 499.469 666.664 532.987 654.109 563.467C641.555 593.947 620.244 620.02 592.872 638.388C565.499 656.756 533.295 666.595 500.331 666.66C478.443 666.706 456.76 662.44 436.521 654.105C416.282 645.77 397.883 633.53 382.375 618.083C366.867 602.636 354.554 584.286 346.139 564.08C337.724 543.874 333.371 522.208 333.331 500.32Z" fill="white"/>
</svg>
