<svg width="594" height="436" viewBox="0 0 594 436" fill="none" xmlns="http://www.w3.org/2000/svg">
<g clip-path="url(#clip0_1132_252)">
<path d="M80.8163 152.093C80.8163 129.693 62.725 111.535 40.4082 111.535C18.0913 111.535 0 129.693 0 152.093V283.907C0 306.307 18.0913 324.465 40.4082 324.465C62.725 324.465 80.8163 306.307 80.8163 283.907V152.093Z" fill="#FF5252"/>
<path d="M209.111 98.8604C209.111 75.0607 189.889 55.7673 166.178 55.7673C142.466 55.7673 123.244 75.0607 123.244 98.8604V337.139C123.244 360.939 142.466 380.232 166.178 380.232C189.889 380.232 209.111 360.939 209.111 337.139V98.8604Z" fill="white"/>
<path d="M342.459 45.6279C342.459 20.4283 322.107 0 297 0C271.894 0 251.541 20.4283 251.541 45.6279V390.372C251.541 415.572 271.894 436 297 436C322.107 436 342.459 415.572 342.459 390.372V45.6279Z" fill="#FF5252"/>
<path d="M470.756 98.8604C470.756 75.0607 451.534 55.7673 427.822 55.7673C404.111 55.7673 384.889 75.0607 384.889 98.8604V337.139C384.889 360.939 404.111 380.232 427.822 380.232C451.534 380.232 470.756 360.939 470.756 337.139V98.8604Z" fill="white"/>
<path d="M594 152.093C594 129.693 575.909 111.535 553.592 111.535C531.275 111.535 513.184 129.693 513.184 152.093V283.907C513.184 306.307 531.275 324.465 553.592 324.465C575.909 324.465 594 306.307 594 283.907V152.093Z" fill="#FF5252"/>
</g>
<defs>
<clipPath id="clip0_1132_252">
<rect width="594" height="436" fill="white"/>
</clipPath>
</defs>
</svg>
