<svg width="10" height="10" viewBox="0 0 10 10" fill="none" xmlns="http://www.w3.org/2000/svg">
<path d="M0.225302 8.68686C-0.0751008 8.98725 -0.0751008 9.47433 0.225302 9.77471C0.525706 10.0751 1.01275 10.0751 1.31316 9.77471L0.769231 9.23079L0.225302 8.68686ZM10 0.769232C10 0.344397 9.65562 1.94523e-07 9.23077 0L2.30769 6.15992e-07C1.88286 3.56626e-07 1.53846 0.344398 1.53846 0.769232C1.53846 1.19406 1.88286 1.53847 2.30769 1.53847H8.46154V7.69232C8.46154 8.11717 8.80592 8.46155 9.23077 8.46155C9.65562 8.46155 10 8.11717 10 7.69232V0.769232ZM0.769231 9.23079L1.31316 9.77471L9.77469 1.31317L9.23077 0.769232L8.68685 0.225303L0.225302 8.68686L0.769231 9.23079Z" fill="white"/>
</svg>
