<svg width="8" height="8" viewBox="0 0 8 8" fill="none" xmlns="http://www.w3.org/2000/svg">
<path d="M0.180242 6.94949C-0.0600806 7.1898 -0.0600806 7.57946 0.180242 7.81977C0.420565 8.06008 0.810203 8.06008 1.05053 7.81977L0.615385 7.38463L0.180242 6.94949ZM8 0.615386C8 0.275518 7.72449 1.55619e-07 7.38462 0L1.84615 4.92794e-07C1.50629 2.85301e-07 1.23077 0.275518 1.23077 0.615386C1.23077 0.955252 1.50629 1.23077 1.84615 1.23077H6.76923V6.15386C6.76923 6.49374 7.04474 6.76924 7.38462 6.76924C7.72449 6.76924 8 6.49374 8 6.15386V0.615386ZM0.615385 7.38463L1.05053 7.81977L7.81975 1.05053L7.38462 0.615386L6.94948 0.180242L0.180242 6.94949L0.615385 7.38463Z" fill="white"/>
</svg>
