<svg width="16" height="18" viewBox="0 0 16 18" fill="none" xmlns="http://www.w3.org/2000/svg">
<path d="M9 1.22192C9 0.669639 8.55228 0.221924 8 0.221924C7.44772 0.221924 7 0.669639 7 1.22192L8 1.22192L9 1.22192ZM7.29289 17.4854C7.68342 17.8759 8.31658 17.8759 8.70711 17.4854L15.0711 11.1214C15.4616 10.7309 15.4616 10.0977 15.0711 9.70721C14.6805 9.31668 14.0474 9.31668 13.6569 9.70721L8 15.3641L2.34315 9.70721C1.95262 9.31668 1.31946 9.31668 0.928932 9.70721C0.538407 10.0977 0.538407 10.7309 0.928932 11.1214L7.29289 17.4854ZM8 1.22192L7 1.22192L7 16.7783L8 16.7783L9 16.7783L9 1.22192L8 1.22192Z" fill="black"/>
</svg>
