<svg width="68" height="46" viewBox="0 0 68 46" fill="none" xmlns="http://www.w3.org/2000/svg">
<path d="M65 26C66.6569 26 68 24.6569 68 23C68 21.3431 66.6569 20 65 20V23V26ZM0.87868 20.8787C-0.292893 22.0503 -0.292893 23.9497 0.87868 25.1213L19.9706 44.2132C21.1421 45.3848 23.0416 45.3848 24.2132 44.2132C25.3848 43.0416 25.3848 41.1421 24.2132 39.9706L7.24264 23L24.2132 6.02944C25.3848 4.85786 25.3848 2.95837 24.2132 1.7868C23.0416 0.615224 21.1421 0.615224 19.9706 1.7868L0.87868 20.8787ZM65 23V20L3 20V23V26L65 26V23Z" fill="white"/>
</svg>
