<svg width="12" height="12" viewBox="0 0 12 12" fill="none" xmlns="http://www.w3.org/2000/svg">
<path d="M0.270363 10.4242C-0.090121 10.7847 -0.090121 11.3692 0.270363 11.7297C0.630847 12.0901 1.2153 12.0901 1.57579 11.7297L0.923077 11.0769L0.270363 10.4242ZM12 0.923079C12 0.413276 11.5867 2.33428e-07 11.0769 0L2.76923 7.3919e-07C2.25943 4.27951e-07 1.84615 0.413277 1.84615 0.923079C1.84615 1.43288 2.25943 1.84616 2.76923 1.84616H10.1538V9.23079C10.1538 9.7406 10.5671 10.1539 11.0769 10.1539C11.5867 10.1539 12 9.7406 12 9.23079V0.923079ZM0.923077 11.0769L1.57579 11.7297L11.7296 1.5758L11.0769 0.923079L10.4242 0.270364L0.270363 10.4242L0.923077 11.0769Z" fill="white"/>
</svg>
