<svg width="1000" height="1000" viewBox="0 0 1000 1000" fill="none" xmlns="http://www.w3.org/2000/svg">
<rect width="1000" height="1000" rx="300" fill="white"/>
<path d="M270 672V328H402.845C449.373 328 485.152 345.296 510.18 379.888C532 410.317 542.91 450.354 542.91 500C542.91 557.013 528.792 600.894 500.554 631.642C475.846 658.547 443.276 672 402.845 672H270ZM313.8 633.084H395.144C464.455 633.084 499.11 588.723 499.11 500C499.11 411.277 464.455 366.916 395.144 366.916H313.8V633.084Z" fill="black"/>
<path d="M618.027 366.918V672H574.482V366.918L412.463 366.916C410.567 366.916 409.03 365.376 409.03 363.476V331.44C409.03 329.54 410.567 328 412.463 328L730 328.002V366.918H618.027Z" fill="black"/>
</svg>
